<?xml version="1.0" standalone="no"?>
<!DOCTYPE svg PUBLIC "-//W3C//DTD SVG 20010904//EN"
 "http://www.w3.org/TR/2001/REC-SVG-20010904/DTD/svg10.dtd">
<svg version="1.0" xmlns="http://www.w3.org/2000/svg"
 width="400.000000pt" height="400.000000pt" viewBox="0 0 400.000000 400.000000"
 preserveAspectRatio="xMidYMid meet">
<metadata>
Created by potrace 1.11, written by Peter Selinger 2001-2013
</metadata>
<g transform="translate(0.000000,400.000000) scale(0.100000,-0.100000)"
fill="#000000" stroke="none">
<path d="M370 3984 c-184 -50 -305 -171 -354 -354 -22 -82 -22 -3179 0 -3255
8 -27 16 -57 18 -66 7 -26 42 -92 63 -116 10 -12 25 -30 34 -40 28 -33 83 -74
130 -97 109 -54 20 -51 1744 -51 l1600 0 67 23 c77 27 143 68 196 123 36 39
89 124 98 157 2 9 10 40 18 67 12 43 15 284 15 1625 0 1473 -1 1579 -18 1640
-43 158 -135 261 -289 324 l-77 31 -1595 2 c-1381 2 -1602 0 -1650 -13z"/>
</g>
</svg>
